<?xml version="1.0" standalone="no"?>
<!DOCTYPE svg PUBLIC "-//W3C//DTD SVG 20010904//EN"
 "http://www.w3.org/TR/2001/REC-SVG-20010904/DTD/svg10.dtd">
<svg version="1.0" xmlns="http://www.w3.org/2000/svg"
 width="256.000000pt" height="256.000000pt" viewBox="0 0 256.000000 256.000000"
 preserveAspectRatio="xMidYMid meet">

<g transform="translate(0.000000,256.000000) scale(0.100000,-0.100000)"
fill="#4b5e76" stroke="none">
<path d="M1045 2403 c-499 -106 -879 -498 -961 -993 -53 -321 42 -689 242
-934 40 -49 50 -57 76 -54 29 3 31 7 49 78 43 168 151 342 281 449 73 61 208
137 283 161 22 7 43 15 48 17 4 2 -16 31 -45 63 -136 150 -244 397 -278 635
-13 94 -13 245 0 245 6 0 30 -10 53 -21 239 -122 470 -399 622 -747 l32 -73
-5 94 c-9 188 30 438 95 602 43 110 110 228 126 222 18 -6 84 -123 118 -212
18 -44 42 -132 55 -195 33 -156 34 -425 4 -609 -11 -68 -23 -127 -26 -132 -2
-4 32 -43 76 -85 44 -43 101 -108 126 -146 52 -77 106 -204 125 -290 11 -53
15 -58 39 -58 21 0 36 14 76 67 161 219 231 416 241 678 8 227 -28 399 -123
588 -62 125 -115 199 -218 305 -171 177 -379 291 -621 343 -114 24 -383 25
-490 2z"/>
</g>
</svg>
