<svg width="115" height="114" viewBox="0 0 115 114" fill="none" xmlns="http://www.w3.org/2000/svg">
<path d="M40.0253 42.7518V42.2518H39.5253H25.2293H24.7293V42.7518V89.0435V89.5435H25.2293H39.5253H40.0253V89.0435V42.7518ZM79.7991 45.039L79.7955 45.037C77.0825 43.5402 73.9383 42.7529 70.3767 42.6604C67.0934 42.5751 64.054 43.0797 61.265 44.1808V42.7518V42.2518H60.765H46.6052H46.1052V42.7518V89.0435V89.5435H46.6052H60.765H61.265V89.0435V61.0392L66.9711 58.3159L66.9711 58.316L66.9793 58.3119C67.6097 57.9967 68.4991 57.82 69.683 57.82C70.853 57.82 71.7258 58.0376 72.3452 58.4248L72.3654 58.4374L72.3866 58.448C72.8041 58.6567 73.2879 59.149 73.8153 60.028C74.3333 60.8914 74.561 61.6183 74.561 62.2215V89.0435V89.5435H75.061H89.3569H89.8569V89.0435V62.2215C89.8569 58.8565 88.9211 55.5713 87.0665 52.372C85.2103 49.1701 82.7882 46.7204 79.7991 45.039ZM57.225 0.5C65.0569 0.5 72.3863 1.98495 79.2187 4.95165C86.062 7.92309 92.0458 11.9505 97.1741 17.0337C102.301 22.1159 106.35 28.0759 109.321 34.9179C112.288 41.7503 113.773 49.0798 113.773 56.9116C113.773 64.7434 112.288 72.0728 109.321 78.9052C106.35 85.7476 102.301 91.7309 97.1725 96.859C92.0444 101.987 86.0611 106.037 79.2187 109.008C72.3863 111.974 65.0569 113.459 57.225 113.459C49.3932 113.459 42.0638 111.974 35.2314 109.008C28.3894 106.037 22.4294 101.988 17.3472 96.8606C12.2639 91.7323 8.23657 85.7485 5.26513 78.9052C2.29843 72.0728 0.813477 64.7434 0.813477 56.9116C0.813477 49.0798 2.29843 41.7503 5.26513 34.9179C8.2364 28.075 12.2633 22.1145 17.3457 17.0322C22.428 11.9498 28.3885 7.92292 35.2314 4.95165C42.0638 1.98495 49.3932 0.5 57.225 0.5ZM32.3092 39.5756C34.433 39.5756 36.2604 38.8464 37.7626 37.3927C39.269 35.9349 40.0253 34.125 40.0253 31.9957C40.0253 29.8664 39.269 28.0566 37.7626 26.5988C36.2604 25.1451 34.433 24.4158 32.3092 24.4158C30.1852 24.4158 28.3771 25.1455 26.918 26.6046C25.4589 28.0637 24.7293 29.8717 24.7293 31.9957C24.7293 34.1198 25.4589 35.9278 26.918 37.3869C28.3771 38.846 30.1852 39.5756 32.3092 39.5756Z" fill="#FCF9F7" stroke="#FCF9F7"/>
</svg>
