<svg width="124" height="125" viewBox="0 0 124 125" fill="none" xmlns="http://www.w3.org/2000/svg">
<path d="M5 87.6362V36.9876C5 19.5049 19.1726 5.33227 36.6554 5.33227H87.3039C104.787 5.33227 118.959 19.5049 118.959 36.9876V87.6362C118.959 105.119 104.787 119.292 87.3039 119.292H36.6554C19.1726 119.292 5 105.119 5 87.6362Z" fill="#FCF9F7" stroke="#4B5E76" stroke-width="10"/>
<path d="M61.9791 87.6362C75.965 87.6362 87.3034 76.2979 87.3034 62.3119C87.3034 48.3257 75.965 36.9876 61.9791 36.9876C47.9928 36.9876 36.6548 48.3257 36.6548 62.3119C36.6548 76.2979 47.9928 87.6362 61.9791 87.6362Z" fill="#FCF9F7" stroke="#4B5E76" stroke-width="10" stroke-linecap="round" stroke-linejoin="round"/>
<path d="M96.8013 27.5549L96.8651 27.484L96.8013 27.5549Z" fill="#FCF9F7"/>
<path d="M96.8013 27.5549L96.8651 27.484" stroke="#4B5E76" stroke-width="10" stroke-linecap="round" stroke-linejoin="round"/>
</svg>
